<svg width="113" height="112" viewBox="0 0 113 112" fill="none" xmlns="http://www.w3.org/2000/svg">
<path d="M28.6456 18.736V72.6743H17.2417V29.5606H16.9256L4.57354 37.3037V27.1902L17.9264 18.736H28.6456ZM60.9809 17.9986C63.7551 17.9986 66.4239 18.4639 68.9874 19.3945C71.5684 20.325 73.8685 21.8087 75.8877 23.8454C77.9244 25.8822 79.531 28.5861 80.7074 31.9572C81.9013 35.3108 82.5071 39.4282 82.5246 44.3093C82.5246 48.892 82.0067 52.983 80.9707 56.5824C79.9524 60.1642 78.4863 63.2105 76.5725 65.7213C74.6586 68.2321 72.3498 70.146 69.6458 71.4628C66.9419 72.7621 63.9219 73.4118 60.5859 73.4118C56.9865 73.4118 53.8085 72.7182 51.0519 71.3311C48.2952 69.9265 46.0742 68.0214 44.3886 65.616C42.7206 63.193 41.711 60.4715 41.3598 57.4515H52.6057C53.0447 59.418 53.9665 60.9455 55.3711 62.0341C56.7758 63.1052 58.514 63.6407 60.5859 63.6407C64.0975 63.6407 66.7663 62.1132 68.5923 59.0581C70.4184 55.9854 71.3402 51.7803 71.3577 46.4426H70.989C70.1813 48.0228 69.0927 49.3836 67.7232 50.5249C66.3537 51.6486 64.7822 52.5177 63.0089 53.1322C61.2531 53.7468 59.3831 54.054 57.3991 54.054C54.2211 54.054 51.3855 53.3078 48.8922 51.8154C46.399 50.3229 44.4325 48.2686 42.9927 45.6525C41.553 43.0364 40.8331 40.0515 40.8331 36.6979C40.8155 33.0809 41.6495 29.859 43.3351 27.0322C45.0207 24.2054 47.3734 21.993 50.3934 20.3953C53.431 18.7799 56.9601 17.981 60.9809 17.9986ZM61.0599 26.9532C59.2866 26.9532 57.7063 27.3746 56.3193 28.2174C54.9497 29.0602 53.8611 30.1927 53.0535 31.6149C52.2634 33.0371 51.8771 34.6261 51.8946 36.3819C51.8946 38.1552 52.2809 39.753 53.0535 41.1752C53.8436 42.5798 54.9146 43.7036 56.2666 44.5463C57.6361 45.3716 59.1988 45.7842 60.9546 45.7842C62.2714 45.7842 63.4917 45.5384 64.6154 45.0467C65.7391 44.5551 66.7136 43.8791 67.5388 43.0188C68.3816 42.1409 69.0401 41.1313 69.5141 39.99C69.9882 38.8488 70.2252 37.6373 70.2252 36.3555C70.2077 34.6524 69.8038 33.0897 69.0137 31.6675C68.2236 30.2453 67.135 29.1041 65.7479 28.2437C64.3608 27.3834 62.7982 26.9532 61.0599 26.9532Z" fill="#303345"/>
<path d="M14.9339 105.051V87.4892H20.8677C22.2397 87.4892 23.3658 87.7236 24.2462 88.1924C25.1266 88.6554 25.7782 89.2928 26.2013 90.1046C26.6243 90.9163 26.8358 91.8395 26.8358 92.8742C26.8358 93.9089 26.6243 94.8265 26.2013 95.6268C25.7782 96.4271 25.1294 97.0559 24.2548 97.5132C23.3801 97.9648 22.2625 98.1907 20.902 98.1907H16.1001V96.2699H20.8334C21.7709 96.2699 22.5255 96.1327 23.0972 95.8583C23.6745 95.5839 24.0919 95.1952 24.3491 94.6921C24.6121 94.1833 24.7435 93.5774 24.7435 92.8742C24.7435 92.1711 24.6121 91.5566 24.3491 91.0307C24.0861 90.5047 23.666 90.0988 23.0886 89.813C22.5112 89.5215 21.7481 89.3757 20.7991 89.3757H17.0605V105.051H14.9339ZM23.2001 97.1617L27.5218 105.051H25.0522L20.7991 97.1617H23.2001ZM33.9808 105.359C33.1462 105.359 32.3887 105.202 31.7085 104.888C31.0282 104.567 30.488 104.107 30.0878 103.507C29.6877 102.901 29.4876 102.169 29.4876 101.312C29.4876 100.557 29.6362 99.9456 29.9335 99.4769C30.2307 99.0024 30.628 98.6308 31.1254 98.3622C31.6227 98.0935 32.1715 97.8934 32.7717 97.7619C33.3777 97.6247 33.9865 97.5161 34.5982 97.4361C35.3985 97.3332 36.0473 97.256 36.5447 97.2045C37.0477 97.1474 37.4136 97.0531 37.6423 96.9216C37.8766 96.7901 37.9938 96.5614 37.9938 96.2356V96.167C37.9938 95.3209 37.7623 94.6635 37.2993 94.1948C36.8419 93.726 36.1474 93.4916 35.2156 93.4916C34.2495 93.4916 33.492 93.7031 32.9432 94.1262C32.3945 94.5492 32.0086 95.0008 31.7856 95.481L29.8649 94.795C30.2079 93.9947 30.6652 93.3716 31.2368 92.9257C31.8142 92.4741 32.443 92.1597 33.1233 91.9825C33.8093 91.7995 34.4839 91.7081 35.147 91.7081C35.57 91.7081 36.0559 91.7595 36.6047 91.8624C37.1592 91.9596 37.6937 92.1625 38.2082 92.4712C38.7284 92.7799 39.16 93.2458 39.503 93.8689C39.846 94.492 40.0175 95.3267 40.0175 96.3728V105.051H37.9938V103.267H37.8909C37.7537 103.553 37.5251 103.859 37.2049 104.184C36.8848 104.51 36.4589 104.788 35.9273 105.016C35.3957 105.245 34.7468 105.359 33.9808 105.359ZM34.2895 103.541C35.0898 103.541 35.7644 103.384 36.3132 103.07C36.8677 102.755 37.285 102.349 37.5651 101.852C37.8509 101.355 37.9938 100.832 37.9938 100.283V98.4307C37.9081 98.5336 37.7194 98.628 37.4279 98.7137C37.1421 98.7938 36.8105 98.8652 36.4332 98.9281C36.0616 98.9853 35.6986 99.0367 35.3442 99.0824C34.9955 99.1225 34.7125 99.1568 34.4953 99.1853C33.9694 99.2539 33.4777 99.3654 33.0204 99.5198C32.5688 99.6684 32.2029 99.8942 31.9228 100.197C31.6484 100.494 31.5112 100.9 31.5112 101.415C31.5112 102.118 31.7713 102.65 32.2916 103.01C32.8175 103.364 33.4835 103.541 34.2895 103.541ZM43.7111 105.051V91.8796H45.7348V105.051H43.7111ZM44.7401 89.6844C44.3457 89.6844 44.0055 89.5501 43.7197 89.2814C43.4396 89.0127 43.2995 88.6897 43.2995 88.3124C43.2995 87.9351 43.4396 87.6121 43.7197 87.3435C44.0055 87.0748 44.3457 86.9404 44.7401 86.9404C45.1345 86.9404 45.4718 87.0748 45.7519 87.3435C46.0378 87.6121 46.1807 87.9351 46.1807 88.3124C46.1807 88.6897 46.0378 89.0127 45.7519 89.2814C45.4718 89.5501 45.1345 89.6844 44.7401 89.6844ZM51.4649 97.1274V105.051H49.4413V91.8796H51.3963V93.9375H51.5678C51.8765 93.2687 52.3453 92.7313 52.9741 92.3255C53.6029 91.9139 54.4147 91.7081 55.4094 91.7081C56.3011 91.7081 57.0815 91.891 57.7503 92.2569C58.4191 92.617 58.9393 93.1658 59.3109 93.9032C59.6825 94.6349 59.8683 95.561 59.8683 96.6815V105.051H57.8446V96.8187C57.8446 95.784 57.5759 94.9779 57.0386 94.4006C56.5012 93.8175 55.7638 93.5259 54.8263 93.5259C54.1803 93.5259 53.6029 93.666 53.0942 93.9461C52.5911 94.2262 52.1938 94.6349 51.9022 95.1723C51.6107 95.7097 51.4649 96.3614 51.4649 97.1274ZM64.398 109.99C64.055 109.99 63.7491 109.961 63.4804 109.904C63.2118 109.852 63.026 109.801 62.9231 109.75L63.4376 107.966C63.9292 108.092 64.3637 108.137 64.7409 108.103C65.1182 108.069 65.4527 107.9 65.7442 107.597C66.0415 107.3 66.313 106.817 66.5588 106.148L66.9361 105.119L62.0656 91.8796H64.2608L67.8965 102.375H68.0337L71.6694 91.8796H73.8646L68.2738 106.971C68.0223 107.652 67.7107 108.215 67.3391 108.661C66.9676 109.112 66.536 109.447 66.0443 109.664C65.5584 109.881 65.0096 109.99 64.398 109.99Z" fill="#303345"/>
<path d="M91.5113 12.0235C90.9086 12.0235 90.3598 11.8765 89.8649 11.5825C89.37 11.2885 88.9756 10.8941 88.6816 10.3992C88.3876 9.8994 88.2406 9.34816 88.2406 8.74547C88.2406 8.14278 88.3876 7.59399 88.6816 7.0991C88.9756 6.6042 89.37 6.20976 89.8649 5.91577C90.3598 5.62177 90.9086 5.47477 91.5113 5.47477C92.114 5.47477 92.6627 5.62177 93.1576 5.91577C93.6525 6.20976 94.047 6.6042 94.341 7.0991C94.635 7.59399 94.782 8.14278 94.782 8.74547C94.782 9.34816 94.635 9.8994 94.341 10.3992C94.047 10.8941 93.6525 11.2885 93.1576 11.5825C92.6627 11.8765 92.114 12.0235 91.5113 12.0235ZM91.5113 10.8843C91.9082 10.8843 92.2658 10.7887 92.5843 10.5976C92.9077 10.4065 93.165 10.1493 93.3561 9.8259C93.5521 9.50251 93.6501 9.14236 93.6501 8.74547C93.6501 8.35348 93.5521 7.99578 93.3561 7.67239C93.165 7.34899 92.9077 7.09175 92.5843 6.90065C92.2658 6.70955 91.9082 6.614 91.5113 6.614C91.1193 6.614 90.7616 6.70955 90.4382 6.90065C90.1148 7.09175 89.8551 7.34899 89.6591 7.67239C89.468 7.99578 89.3724 8.35348 89.3724 8.74547C89.3724 9.14236 89.468 9.50251 89.6591 9.8259C89.8551 10.1493 90.1148 10.4065 90.4382 10.5976C90.7616 10.7887 91.1193 10.8843 91.5113 10.8843Z" fill="#303345"/>
<path d="M106.394 20.9095C105.385 20.9095 104.505 20.6572 103.755 20.1525C103.011 19.6478 102.432 18.9569 102.021 18.0798C101.609 17.2027 101.403 16.2031 101.403 15.0811C101.403 13.9492 101.612 12.9422 102.028 12.0603C102.45 11.1783 103.033 10.4874 103.777 9.9876C104.522 9.48291 105.387 9.23056 106.372 9.23056C107.127 9.23056 107.81 9.37756 108.423 9.67155C109.035 9.96065 109.54 10.3698 109.937 10.899C110.338 11.4233 110.591 12.0358 110.694 12.7365H109.371C109.234 12.0995 108.903 11.5556 108.378 11.1048C107.859 10.6491 107.198 10.4212 106.394 10.4212C105.674 10.4212 105.037 10.6172 104.483 11.0092C103.929 11.3963 103.496 11.9378 103.182 12.6336C102.873 13.3244 102.719 14.1256 102.719 15.037C102.719 15.9532 102.871 16.7642 103.175 17.4698C103.479 18.1705 103.905 18.7192 104.454 19.1161C105.007 19.513 105.654 19.7115 106.394 19.7115C106.894 19.7115 107.35 19.6184 107.761 19.4322C108.178 19.2411 108.525 18.9716 108.805 18.6237C109.089 18.2758 109.28 17.8618 109.378 17.3816H110.701C110.603 18.0627 110.361 18.6703 109.973 19.2043C109.591 19.7335 109.094 20.15 108.481 20.4538C107.874 20.7576 107.178 20.9095 106.394 20.9095Z" fill="#303345"/>
</svg>
